<?xml version="1.0" encoding="UTF-8" standalone="no"?>
<!DOCTYPE svg PUBLIC "-//W3C//DTD SVG 1.1//EN" "http://www.w3.org/Graphics/SVG/1.1/DTD/svg11.dtd">
<svg width="100%" height="100%" viewBox="0 0 24 24" version="1.1" xmlns="http://www.w3.org/2000/svg" xmlns:xlink="http://www.w3.org/1999/xlink" xml:space="preserve" xmlns:serif="http://www.serif.com/" style="fill-rule:evenodd;clip-rule:evenodd;stroke-linejoin:round;stroke-miterlimit:2;">
    <g>
        <rect x="0" y="0" width="24" height="24" style="fill:none;"/>
    </g>
    <g>
        <path d="M20,3L4,3C2.89,3 2,3.89 2,5L2,17C2,18.1 2.89,19 4,19L8,19L8,21L16,21L16,19L20,19C21.1,19 22,18.1 22,17L22,5C22,3.89 21.1,3 20,3ZM20,17L4,17L4,5L20,5L20,17ZM14,8.25L6,8.25L6,9.75L14,9.75L14,8.25ZM16.5,9.75L18,9.75L18,8.25L16.5,8.25L16.5,7L15,7L15,11L16.5,11L16.5,9.75ZM18,12.25L10,12.25L10,13.75L18,13.75L18,12.25ZM7.5,15L9,15L9,11L7.5,11L7.5,12.25L6,12.25L6,13.75L7.5,13.75L7.5,15Z" style="fill-rule:nonzero;"/>
    </g>
</svg>
